<?xml version="1.0" encoding="UTF-8" standalone="no"?>
<svg id="svg2" xmlns="http://www.w3.org/2000/svg" height="274.27" width="308.9" version="1.0" xmlns:xlink="http://www.w3.org/1999/xlink">
 <defs id="defs6">
  <linearGradient id="lg1" y2="776.56" gradientUnits="userSpaceOnUse" x2="286.71" gradientTransform="matrix(.74743 0 0 1.3379 .25 132)" y1="794.37" x1="277.49">
   <stop id="stop3440" stop-color="#fdf064" offset="0"/>
   <stop id="stop3442" stop-color="#c68200" offset="1"/>
  </linearGradient>
  <linearGradient id="G0" y2="819.09" xlink:href="#G9" gradientUnits="userSpaceOnUse" x2="249.34" gradientTransform="matrix(.88068 0 0 1.1355 0 280)" y1="768.04" x1="296.14">
   <stop id="stop9" stop-color="#5e0000" offset="0"/>
   <stop id="stop11" stop-color="#ae0800" offset="1"/>
  </linearGradient>
  <linearGradient id="G1" y2="408.78" gradientUnits="userSpaceOnUse" x2="504.9" gradientTransform="matrix(.44846 0 0 2.2298 0 280)" y1="408.78" x1="433.23">
   <stop id="stop14" stop-color="#fff" offset="0"/>
   <stop id="stop16" stop-color="#fff" stop-opacity="0" offset="1"/>
  </linearGradient>
  <linearGradient id="G2" y2="1719" gradientUnits="userSpaceOnUse" x2="116.15" gradientTransform="matrix(1.9585 0 0 .51059 0 280)" y1="1726.7" x1="121.74">
   <stop id="stop19" stop-color="#ebebe2" offset="0"/>
   <stop id="stop21" stop-color="#bcbc8e" offset="1"/>
  </linearGradient>
  <linearGradient id="G5" y2="885.65" xlink:href="#G1" x2="252.1" gradientTransform="matrix(.83406 0 0 1.199 0 132)" y1="868.12" x1="250.29"/>
  <linearGradient id="G6" y2="1976.4" xlink:href="#G1" x2="115.17" gradientTransform="matrix(1.9379 0 0 .51603 0 140)" y1="1985.5" x1="126.14"/>
  <radialGradient id="G7" gradientUnits="userSpaceOnUse" cy="1794.9" cx="169.88" gradientTransform="scale(1.4598 0.685)" r="44.525">
   <stop id="stop32" stop-opacity=".4" offset="0"/>
   <stop id="stop34" stop-opacity="0" offset="1"/>
  </radialGradient>
  <linearGradient id="G9" y2="1082.9" spreadMethod="reflect" gradientUnits="userSpaceOnUse" x2="211.85" gradientTransform="matrix(1.176 0 0 .85037 0 280)" y1="1137.6" x1="205.99">
   <stop id="stop37" stop-color="#568953" offset="0"/>
   <stop id="stop39" stop-color="#1b4c1f" offset="1"/>
  </linearGradient>
  <linearGradient id="G10" y2="1448.5" xlink:href="#G2" x2="189.14" gradientTransform="matrix(1.5147 0 0 .66019 0 280)" y1="1448.5" x1="131.92"/>
  <linearGradient id="G11" y2="1776.3" xlink:href="#G1" x2="164.79" gradientTransform="matrix(1.615 0 0 .61918 0 140)" y1="1700.8" x1="143.16"/>
  <linearGradient id="G12" y2="1444.9" xlink:href="#lg1" x2="191.07" gradientTransform="matrix(1.3622 0 0 .73409 0 140)" y1="1478.2" x1="191.07"/>
  <linearGradient id="G13" y2="1634.5" xlink:href="#G2" x2="157.33" gradientTransform="matrix(1.5147 0 0 .66019 0 140)" y1="1696.2" x1="140.26"/>
  <linearGradient id="G15" y2="1669.3" x2="147.69" gradientTransform="matrix(1.5147 0 0 .66019 0 140)" y1="1674.5" x1="140.18"/>
  <linearGradient id="G16" y2="985.93" xlink:href="#lg1" spreadMethod="reflect" x2="226.88" gradientTransform="matrix(.90728 0 0 1.1022 0 140)" y1="1000.9" x1="223.66"/>
  <linearGradient id="G17" y2="1068.4" xlink:href="#G1" x2="212.01" gradientTransform="matrix(.96515 0 0 1.0361 0 140)" y1="1048.1" x1="211.96"/>
  <linearGradient id="G18" y2="1493.9" xlink:href="#G1" x2="182.97" gradientTransform="matrix(1.3622 0 0 .73409 0 140)" y1="1437.3" x1="196.65"/>
  <linearGradient id="lg4" y2="776.56" xlink:href="#lg1" gradientUnits="userSpaceOnUse" x2="286.71" gradientTransform="matrix(.74743 0 0 1.3379 .25 132)" y1="794.37" x1="277.49"/>
  <linearGradient id="lg5" y2="1667" xlink:href="#G1" x2="167.52" gradientTransform="matrix(1.5147 0 0 .66019 0 140)" y1="1674.5" x1="175.51"/>
  <linearGradient id="lg6" y2="10.674" xlink:href="#G1" gradientUnits="userSpaceOnUse" x2="116.05" y1="36.737" x1="122.26"/>
  <linearGradient id="lg7" y2="1051.4" xlink:href="#G1" x2="243.66" gradientTransform="matrix(.99134 0 0 1.0087 0 140)" y1="998.7" x1="241.41"/>
 </defs>
 <g id="g52" transform="translate(-5.5494 -22.868)">
  <g id="g54" transform="matrix(2.3964 0 0 2.3964 -440.31 -2735.1)">
   <path id="p0" d="m202.47 1162l46.06-10.6 14.17 3.5-3.54 56.7-42.52 17.7-14.17-10.6v-56.7z" stroke="#000" fill="url(#G0)"/>
   <path id="path57" opacity=".5" fill="url(#G1)" d="m203.93 1163.2v54.3l12.86 9.6v-58.9c-6.59-0.1-11.4-3.1-12.86-5z"/>
   <path id="p2" d="m207.06 1162.3c1.91 2 5.06 3.8 9.45 3.9l42.77-11.7-9.22-2.2-43 10z" stroke-opacity=".2" stroke="#000" fill="url(#G2)"/>
   <path id="path60" opacity=".5" d="m218.75 1168.2l41.25-11.4-0.75 24.4c-1.42 26.9-31.08-18.8-40.5 16.3v-29.3z" fill="url(#lg7)"/>
   <path id="p4" d="m202.66 1172.3c3.53 3.4 8.66 5.9 13.96 5.8l-0.17 20.2c-4.66-0.5-11.08-2.9-13.61-6.7l-0.18-19.3z" stroke-opacity=".39216" stroke="#000" fill="url(#lg4)"/>
   <path id="path63" fill="url(#G5)" d="m203.85 1175.1c2.17 2.5 7.57 4.7 11.24 4.5 0 3.6 0.66 8.9-1.13 10.1-3.4 2.3-5.29-10.3-9.96-3.9-0.17-3.5 0.02-7.3-0.15-10.7z"/>
   <use id="p6" stroke-opacity=".2" xlink:href="#p2" height="274.26697" width="308.90109" y="0" x="0" fill="url(#G6)"/>
  </g>
  <g id="g66" transform="matrix(2.3964 0 0 2.3964 -440.31 -2735.1)">
   <path id="p7" fill="url(#G7)" d="m313 1229.5c0 16.8-29.1 30.5-65 30.5s-65-13.7-65-30.5 29.1-30.5 65-30.5 65 13.7 65 30.5z" transform="matrix(.57678 -.12442 -.026664 .73838 147.49 344.51)"/>
  </g>
  <g id="g71" transform="matrix(2.3964 0 0 2.3964 -440.31 -2735.1)">
   <path id="p9" d="m199.43 1218.2l53.14-21.3 35.44 21.3v14.2l-53.15 28.3-35.43-28.3v-14.2z" stroke="#000" fill="url(#G9)"/>
   <path id="p10" d="m287.32 1219.6l-52.5 26.8-34.64-25.5-0.36 8.9 35.18 28.1 52-27.5 0.32-10.8z" stroke-opacity=".19608" stroke="#000" stroke-width="2" fill="url(#G10)"/>
   <path id="path75" opacity=".5" fill="url(#G11)" d="m203.65 1218.8l48.79-20.1 32.17 19.8c-6.25 3.2-15.54 7.6-21.21 8.5-25.44 3.8-17.33-13.1-59.75-8.2z"/>
   <path id="p12" d="m252.25 1200.8l-15.5 6.4 28.25 17.3 15-6.5-27.75-17.2z" stroke-opacity=".4" stroke="#000" fill="url(#G12)"/>
   <use id="p13" stroke-opacity=".19608" xlink:href="#p10" height="274.26697" width="308.90109" stroke="#000000" y="0" x="0" fill="url(#G13)"/>
   <path id="path79" fill="url(#lg5)" d="m287.32 1219.6l-52.5 26.8 0.18 11.5 52-27.5 0.32-10.8z"/>
   <path id="path81" fill="url(#G15)" d="m234.82 1246.4l-34.64-25.5-0.36 8.9 35.18 28.1-0.18-11.5z"/>
   <path id="p16" d="m203.48 1227.2c3.36 2.8 6.72 5.5 10.08 8.3-4.23 1.4-4.95 16.8-14.18 17.7 1.57-5.2 1.64-8.3 1.71-12.3-2.43 1.5-6.36 2.7-8.79 1.7 6.73-4.9 7.45-14.5 11.18-15.4z" stroke="#000" fill="url(#G16)"/>
   <path id="path84" fill="url(#G17)" d="m202.49 1229.6c-0.94 0.6-2.08 4.4-3.44 7.1 3.18-3.1 4.35 7.1 7.43 6.9 1.82-0.2 2.92-4.4 3.84-6.8 0.86-2.3-6.36-8.2-7.83-7.2z"/>
   <path id="path86" d="m252.12 1202.2l-12.5 5.2c11.96-3.7 18.76 5.9 25.63 11.5 4.76 3.8 14.83-1 7.87-4.1l-21-12.6z" fill="url(#G18)"/>
  </g>
 </g>
 <path id="rect3089" d="m50.339 27.464c33.968-7.922 68.461-15.966 103.02-24.024 8.09 1.9276 12.2 2.9142 22.12 5.3024-34.11 9.3226-68.15 18.797-102.88 27.995-3.476-0.52-10.012-0.719-14.718-3.787-4.706-3.069-5.007-3.461-7.543-5.486z" fill="url(#lg6)"/>
</svg>
