<?xml version="1.0" encoding="iso-8859-1"?>
<!-- Generator: Adobe Illustrator 19.0.0, SVG Export Plug-In . SVG Version: 6.00 Build 0)  -->
<svg version="1.1" id="Capa_1" xmlns="http://www.w3.org/2000/svg" xmlns:xlink="http://www.w3.org/1999/xlink" x="0px" y="0px"
	 viewBox="0 0 511.998 511.998" style="enable-background:new 0 0 511.998 511.998;" xml:space="preserve">
<path style="fill:#FFC2A6;" d="M347.275,390.91l-31.29-20.863h-119.96l-31.29,20.863c7.028,15.645,17.944,30.38,31.53,41.836
	l-0.24,0.28v68.977h119.96v-68.977l-0.24-0.28C329.331,421.29,340.248,406.555,347.275,390.91z"/>
<path style="fill:#FFFFFF;" d="M461.937,210.1h19.993h19.993c-6.128-42.886-35.958-78.634-77.055-92.33l-22.912-7.637l39.987-9.997
	l19.993-9.997l-13.116-10.497c-23.862-19.094-53.512-29.49-84.082-29.49h-2.769c14.465-7.238,25.522-16.155,39.987-23.392
	C373.976,4.377,308.348-2.19,256.005,50.152C203.393-2.46,136.145,4.987,110.054,25.86c14.465,7.238,25.522,17.054,39.987,24.292
	h-2.769c-30.57,0-60.22,10.397-84.082,29.49L50.073,90.139l39.987,9.997l19.993,9.997l-22.912,7.637
	c-41.096,13.695-70.927,49.444-77.055,92.33H30.08h19.993l-14.625,14.625c-16.235,16.235-25.362,38.267-25.362,61.23v4.119H30.08
	h19.993l-5.258,7.018c-15.645,20.853-21.063,47.654-14.735,72.956l19.993-9.997l19.993-9.997
	c-6.328,25.302-0.91,52.103,14.735,72.956l5.258,7.018l48.864-42.196c5.033,7.406,15.367,10.042,23.502,4.618
	c14.241-9.496,26.927-17.954,33.599-22.403c0,7.887,4.349,15.145,11.306,18.864c6.958,3.729,15.395,3.319,21.963-1.06l15.625-10.407
	c6.708-4.479,15.465-4.479,22.173,0l15.625,10.407c6.568,4.379,15.005,4.788,21.963,1.06c6.958-3.719,11.306-10.976,11.306-18.864
	c5.446,3.631-8.631-5.755,33.599,22.403c8.257,5.508,18.574,2.639,23.502-4.618l48.864,42.196l5.258-7.018
	c15.645-20.853,21.063-47.654,14.735-72.956l19.993,9.997l19.993,9.997c6.328-25.302,0.91-52.103-14.735-72.956l-5.258-7.018h19.993
	h19.993v-4.119c0-22.962-9.127-44.995-25.362-61.23L461.937,210.1z"/>
<g>
	<circle style="fill:#D4E9FF;" cx="196.021" cy="270.081" r="43.316"/>
	<circle style="fill:#D4E9FF;" cx="315.982" cy="270.081" r="43.316"/>
</g>
<path style="fill:#FFC2A6;" d="M385.353,288.854c-3.889-7.787-6.078-16.195-6.728-24.772c-0.41-5.258-0.24-10.577,0.46-15.855
	c8.277-62.469-40.337-118.101-103.516-118.101h-39.127c-63.179,0-111.793,55.632-103.516,118.101
	c1.849,13.905,0.01,28.071-6.268,40.627c-6.338,12.666-3.849,27.971,6.168,37.987l14.265,14.265
	c2.569-3.959,5.558-7.657,8.947-11.046c11.576-11.576,26.891-18.574,43.096-19.793l-0.03-0.32
	c-23.13,1.814-43.066-16.512-43.066-39.867c0-22.083,17.904-39.987,39.987-39.987c14.795,0,27.721,8.037,34.639,19.993
	c7.68,13.306,7.163,30.203-2.019,43.126l3.449,17.244c0.46,2.299,1.24,4.469,2.279,6.468c4.109,7.907,12.356,13.136,21.633,13.136
	c9.277,0,17.524-5.228,21.633-13.136c1.04-1.999,1.819-4.169,2.279-6.468l3.449-17.244c-4.638-6.528-7.368-14.515-7.368-23.132
	c0-22.095,17.913-39.987,39.987-39.987c22.175,0,39.987,18.004,39.987,39.987c0,23.68-20.398,41.809-43.166,39.857l-0.03,0.32
	c16.245,1.21,31.59,8.197,43.196,19.803c3.389,3.389,6.378,7.088,8.947,11.046l14.265-14.265
	C389.201,316.824,391.691,301.519,385.353,288.854z"/>
<path d="M281.348,200.103h-50.683c-5.521,0-9.997,4.476-9.997,9.997c0,5.521,4.476,9.997,9.997,9.997h50.683
	c5.521,0,9.997-4.476,9.997-9.997C291.345,204.578,286.868,200.103,281.348,200.103z"/>
<path d="M501.924,220.096c2.898,0,5.653-1.258,7.553-3.447c1.898-2.189,2.754-5.094,2.344-7.963
	c-3.27-22.881-12.826-44.356-27.636-62.102c-12.753-15.282-28.921-27.224-47.166-34.911c14.085-3.654,2.217,0.473,29.389-12.591
	c3.049-1.524,5.111-4.498,5.47-7.887c0.359-3.39-1.034-6.729-3.695-8.859l-13.117-10.497
	c-17.982-14.389-39.214-24.225-61.626-28.783c4.204-2.596,8.416-5.065,12.989-7.353c3.048-1.525,5.109-4.499,5.468-7.888
	s-1.035-6.729-3.697-8.858c-17.173-13.74-43.67-20.652-70.877-18.487c-21.019,1.671-51.54,9.401-81.327,35.945
	c-54.24-48.111-122.242-42.317-152.189-18.359c-2.662,2.129-4.055,5.468-3.696,8.858c0.358,3.39,2.419,6.363,5.468,7.888
	c4.831,2.417,9.283,5.167,13.76,8.097c-22.699,4.489-44.208,14.384-62.397,28.939L43.828,82.335
	c-2.967,2.374-4.331,6.225-3.52,9.938c0.811,3.712,3.656,6.644,7.343,7.566l35.254,8.813C38.77,123.807,6.803,162.43,0.193,208.685
	c-0.41,2.869,0.445,5.774,2.344,7.963c1.898,2.189,4.654,3.347,7.553,3.347h15.939c-29.389,31.583-25.648,68.478-25.935,70.077
	c0,5.521,4.476,9.897,9.997,9.897h20.74c-12.829,21.737-16.655,47.673-10.445,72.502c0.736,2.941,2.767,5.39,5.521,6.657
	s5.935,1.215,8.647-0.141l22.975-11.488c-1.579,41.164,22.408,64.617,24.534,68.52c3.488,4.654,10.169,5.341,14.534,1.572
	l42.133-36.384c6.245,3.901,14.013,5.229,21.544,3.102c6.742,12.217,15.498,23.343,25.758,32.729v64.963
	c0,5.521,4.476,9.997,9.997,9.997h119.96c5.521,0,9.997-4.476,9.997-9.997v-64.963c10.268-9.395,19.026-20.526,25.769-32.749
	c7.291,2.017,15.132,0.854,21.517-3.097l42.149,36.398c4.406,3.805,11.078,3.039,14.534-1.572
	c2.001-3.676,26.109-27.418,24.534-68.52l22.975,11.488c2.711,1.356,5.893,1.408,8.647,0.141c2.754-1.268,4.785-3.716,5.521-6.657
	c6.21-24.829,2.383-50.669-10.444-72.402h20.739c5.521,0,9.997-4.475,9.997-9.997v-4.119c0-24.295-9.414-48.104-25.935-65.858
	h15.935V220.096z M142.837,246.914c-7.478-56.428,36.476-106.792,93.606-106.792h39.127c57.151,0,101.081,50.381,93.606,106.791
	c-0.318,2.394-0.532,4.788-0.653,7.172h-5.188c-6.763-19.873-25.775-33.989-47.348-33.989c-15.772,0-30.588,7.537-39.966,19.993
	h-40.028c-9.374-12.453-24.193-19.993-39.967-19.993c-24.138,0-44.333,17.199-48.978,39.987h-3.466
	C143.665,255.747,143.427,251.348,142.837,246.914z M372.116,319.772l-6.226,6.226c-0.923-1.027-1.872-2.03-2.849-3.006
	c-5.113-5.113-10.877-9.445-17.096-12.928c11.147-8.374,18.681-21.297,19.85-35.985h4.124c1.313,6.744,3.471,13.194,6.495,19.248
	C380.831,302.156,379.105,312.784,372.116,319.772z M226.015,270.08c0,16.617-13.46,29.99-29.99,29.99
	c-16.537,0-29.99-13.454-29.99-29.99s13.454-29.99,29.99-29.99C212.275,240.09,226.015,253.239,226.015,270.08z M243.242,312.312
	c-0.628-1.208-1.081-2.491-1.346-3.816l-2.659-13.295c4.439-7.607,6.772-16.204,6.772-25.122c0-3.369-0.348-6.818-1.017-10.097
	h22.027c-0.669,3.279-1.017,6.728-1.017,10.097c0,8.916,2.333,17.511,6.772,25.121l-2.659,13.296
	c-0.265,1.325-0.718,2.608-1.348,3.819c-2.483,4.779-7.374,7.748-12.763,7.748C250.617,320.063,245.727,317.094,243.242,312.312z
	 M313.586,299.97c-15.239-1.192-27.591-13.95-27.591-29.89c0-16.806,13.706-29.99,29.99-29.99c16.142,0,29.99,13.174,29.99,29.99
	C345.976,287.653,330.829,301.447,313.586,299.97z M135.6,293.324c2.114-4.228,3.811-8.661,5.092-13.248h6.356
	c2.483,12.186,9.415,22.772,19.018,29.986c-6.217,3.483-11.982,7.814-17.095,12.929c-0.977,0.977-1.925,1.979-2.849,3.006
	l-6.226-6.226C132.907,312.784,131.181,302.156,135.6,293.324z M206.022,492.006v-40.089c15.688,9.26,32.677,14.097,49.983,14.097
	c17.307,0,34.298-4.838,49.984-14.096v40.088H206.022z M256.005,446.022c-33.008,0-62.52-22.864-78.386-51.688l12.683-8.456
	c2.873,4.921,7.085,9.053,12.307,11.844c10.225,5.479,22.574,4.884,32.226-1.55l15.635-10.414c3.363-2.246,7.708-2.245,11.08,0.006
	l15.622,10.404c9.656,6.437,22.005,7.033,32.219,1.558c5.227-2.794,9.442-6.928,12.316-11.85l12.684,8.457
	C318.543,423.127,289.043,446.022,256.005,446.022z M355.13,384.132c-0.972-0.649,4.773,3.183-33.598-22.403
	c-3.068-2.045-7.013-2.236-10.263-0.497c-3.251,1.739-5.28,5.127-5.28,8.814c0,4.212-2.307,8.062-6.032,10.053
	c-3.708,1.988-8.189,1.77-11.699-0.569l-15.616-10.401c-10.106-6.747-23.166-6.747-33.265-0.006l-15.629,10.41
	c-3.505,2.336-7.986,2.554-11.705,0.561c-3.715-1.985-6.022-5.835-6.022-10.048c0-3.687-2.029-7.075-5.28-8.814
	c-3.25-1.739-7.194-1.549-10.263,0.497c-36.548,24.368-34.729,23.602-37.41,23.602c-3.611,0-7.028-2.821-7.028-7.008
	c0-30.433,23.486-55.804,53.855-58.09c9.286-0.712,18.75,0.866,27.552,4.557c6.336,9.494,16.955,15.266,28.557,15.266
	c11.601,0,22.223-5.773,28.557-15.266c8.779-3.679,18.218-5.258,27.472-4.565c30.53,2.274,53.935,27.744,53.935,58.099
	C365.969,383.942,359.786,387.236,355.13,384.132z M491.697,280.076h-29.759c-3.786,0-7.247,2.138-8.94,5.524
	c-1.693,3.386-1.33,7.438,0.94,10.467l5.262,7.023c11.327,15.098,16.579,33.506,15.099,51.963l-27.883-13.941
	c-3.493-1.746-7.681-1.3-10.726,1.144c-3.045,2.443-4.39,6.436-3.442,10.224c5.463,21.847,1.129,44.679-11.889,62.964
	l-35.236-30.428c0.546-2.164,0.842-4.405,0.842-6.691c0-10.324-2.005-20.399-5.96-29.948c-0.788-1.9-1.668-3.768-2.608-5.607
	l8.859-8.859c13.085-13.085,16.315-32.989,8.042-49.523c-3.041-6.09-4.907-12.771-5.586-19.881c0.006-0.142,0.021-0.281,0.021-0.424
	c0-0.689-0.07-1.361-0.203-2.01c-0.237-4.097-0.095-8.301,0.466-12.532c9.061-68.386-44.2-129.411-113.427-129.411h-39.127
	c-69.005,0-122.519,60.79-113.426,129.415c1.666,12.526-0.167,24.572-5.298,34.835c-8.276,16.541-5.045,36.445,8.039,49.53
	l8.848,8.847c-5.615,10.983-8.556,23.129-8.556,35.566c0,2.285,0.296,4.527,0.842,6.691l-35.236,30.43
	c-13.018-18.281-17.353-41.115-11.889-62.964c0.948-3.788-0.397-7.78-3.442-10.224c-3.046-2.443-7.235-2.889-10.726-1.144
	l-27.883,13.942c-2.801-34.909,18.465-55.469,20.36-58.987c2.27-3.029,2.634-7.081,0.94-10.467c-1.694-3.386-5.155-5.524-8.94-5.524
	H20.314c2.953-37.57,29.754-53.952,36.828-62.908c2.859-2.859,3.714-7.16,2.166-10.894c-1.547-3.736-5.192-6.171-9.236-6.171H22.254
	c8.765-34.148,34.017-61.508,68.05-72.849l22.912-7.637c3.836-1.279,6.523-4.742,6.81-8.775c0.287-4.034-1.884-7.841-5.5-9.65
	c-27.442-13.607-14.344-8.718-42.391-15.842c21.54-16.275,48.086-25.201,75.138-25.201h2.769c4.635,0,8.663-3.187,9.729-7.698
	s-1.111-9.164-5.256-11.238c-6.672-3.339-12.618-7.311-18.911-11.517c-1.796-1.201-3.61-2.412-5.457-3.62
	c27.423-10.553,77.097-10.551,118.792,31.146c3.904,3.904,10.234,3.904,14.138,0c27.648-27.648,56.499-35.284,75.835-36.822
	c15.431-1.228,30.774,1.097,43.081,6.23c-1.817,1.13-3.604,2.26-5.373,3.381c-6.344,4.016-12.336,7.808-19.119,11.202
	c-4.146,2.074-6.322,6.727-5.256,11.238c1.066,4.512,5.093,7.698,9.729,7.698h2.769c46.884,0,78.195,27.724,78.756,28.035
	l-5.04,2.52l-38.922,9.731c-4.312,1.078-7.394,4.873-7.564,9.314c-0.17,4.442,2.611,8.461,6.828,9.868l22.913,7.638
	c34.032,11.34,59.283,38.701,68.049,72.849h-27.82c-4.043,0-7.688,2.436-9.236,6.171c-1.548,3.735-0.692,8.035,2.166,10.894
	l14.625,14.625C482.362,244.66,490.276,261.996,491.697,280.076z"/>
<path d="M216.019,180.109h79.974c5.521,0,9.997-4.476,9.997-9.997c0-5.521-4.476-9.997-9.997-9.997h-79.974
	c-5.521,0-9.997,4.476-9.997,9.997C206.022,175.634,210.497,180.109,216.019,180.109z"/>
<g>
</g>
<g>
</g>
<g>
</g>
<g>
</g>
<g>
</g>
<g>
</g>
<g>
</g>
<g>
</g>
<g>
</g>
<g>
</g>
<g>
</g>
<g>
</g>
<g>
</g>
<g>
</g>
<g>
</g>
</svg>
